{
	"asset":{
		"generator":"Khronos glTF Blender I/O v4.1.63",
		"version":"2.0"
	},
	"scene":0,
	"scenes":[
		{
			"extras":{
				"other_props":{},
				"GodotPipelineProps":{
					"global_UI":1,
					"path_UI":1,
					"export_UI":1,
					"save_path":"//..\\..\\..\\OneDrive\\Documents\\godot\\spooky\\Map\\MapGround\\MapGround.gltf",
					"collision_UI":1,
					"col_types":5,
					"body_types":0,
					"discard_mesh":0,
					"display_wire":0,
					"use_object_suffix":0,
					"path_options":5,
					"set_path":"",
					"script_dropdown":0
				}
			},
			"name":"Scene",
			"nodes":[
				0,
				1,
				2,
				3
			]
		}
	],
	"nodes":[
		{
			"extras":{
				"collision":"bodyonly",
				"shader":"C:\\Users\\Liith\\OneDrive\\Documents\\godot\\spooky\\Map\\MapGround"
			},
			"mesh":0,
			"name":"terrain",
			"scale":[
				750,
				750,
				750
			],
			"translation":[
				0,
				0,
				-322.62017822265625
			]
		},
		{
			"extras":{
				"collision":"box",
				"size_x":"2.0304",
				"size_z":"2.0108",
				"size_y":"0.0634"
			},
			"mesh":1,
			"name":"water",
			"scale":[
				1000,
				1000,
				1000
			],
			"translation":[
				15.212833404541016,
				-4.507621765136719,
				-327.8404235839844
			]
		},
		{
			"name":"Empty",
			"rotation":[
				0.4757120907306671,
				0.3303813338279724,
				-0.1987966001033783,
				0.7905860543251038
			],
			"translation":[
				-91.732666015625,
				-1315.5850830078125,
				1085.37939453125
			]
		},
		{
			"extras":{
				"collision":"trimesh-c-d"
			},
			"mesh":2,
			"name":"terrain_collider",
			"scale":[
				750,
				750,
				750
			],
			"translation":[
				0,
				0,
				-322.62017822265625
			]
		}
	],
	"materials":[
		{
			"doubleSided":true,
			"name":"Material",
			"pbrMetallicRoughness":{
				"baseColorTexture":{
					"index":0
				},
				"metallicFactor":0,
				"roughnessFactor":0.5
			}
		},
		{
			"doubleSided":true,
			"name":"Material.001",
			"pbrMetallicRoughness":{
				"baseColorFactor":[
					0.28466129302978516,
					0.4793412387371063,
					0.8007591962814331,
					1
				],
				"metallicFactor":0,
				"roughnessFactor":0.5
			}
		}
	],
	"meshes":[
		{
			"name":"Plane",
			"primitives":[
				{
					"attributes":{
						"POSITION":0,
						"NORMAL":1,
						"TEXCOORD_0":2
					},
					"indices":3,
					"material":0
				}
			]
		},
		{
			"name":"Plane.001",
			"primitives":[
				{
					"attributes":{
						"POSITION":4,
						"NORMAL":5,
						"TEXCOORD_0":6
					},
					"indices":7,
					"material":1
				}
			]
		},
		{
			"name":"Plane.004",
			"primitives":[
				{
					"attributes":{
						"POSITION":8,
						"NORMAL":9,
						"TEXCOORD_0":10
					},
					"indices":11
				}
			]
		}
	],
	"textures":[
		{
			"sampler":0,
			"source":0
		}
	],
	"images":[
		{
			"mimeType":"image/png",
			"name":"terrainmask_RGB",
			"uri":"terrainmask_RGB.png"
		}
	],
	"accessors":[
		{
			"bufferView":0,
			"componentType":5126,
			"count":15822,
			"max":[
				1.0397329330444336,
				0.3123776316642761,
				1.0001248121261597
			],
			"min":[
				-1.0173640251159668,
				-0.07605908066034317,
				-1.0149861574172974
			],
			"type":"VEC3"
		},
		{
			"bufferView":1,
			"componentType":5126,
			"count":15822,
			"type":"VEC3"
		},
		{
			"bufferView":2,
			"componentType":5126,
			"count":15822,
			"type":"VEC2"
		},
		{
			"bufferView":3,
			"componentType":5123,
			"count":93570,
			"type":"SCALAR"
		},
		{
			"bufferView":4,
			"componentType":5126,
			"count":24,
			"max":[
				1.0152127742767334,
				0.03168156370520592,
				1.0053945779800415
			],
			"min":[
				-1.0152127742767334,
				-0.03168156370520592,
				-1.0053945779800415
			],
			"type":"VEC3"
		},
		{
			"bufferView":5,
			"componentType":5126,
			"count":24,
			"type":"VEC3"
		},
		{
			"bufferView":6,
			"componentType":5126,
			"count":24,
			"type":"VEC2"
		},
		{
			"bufferView":7,
			"componentType":5123,
			"count":36,
			"type":"SCALAR"
		},
		{
			"bufferView":8,
			"componentType":5126,
			"count":15374,
			"max":[
				1.0388572216033936,
				0.3123199939727783,
				1.0001248121261597
			],
			"min":[
				-1.0172330141067505,
				-0.07605908066034317,
				-1.0149861574172974
			],
			"type":"VEC3"
		},
		{
			"bufferView":9,
			"componentType":5126,
			"count":15374,
			"type":"VEC3"
		},
		{
			"bufferView":10,
			"componentType":5126,
			"count":15374,
			"type":"VEC2"
		},
		{
			"bufferView":11,
			"componentType":5123,
			"count":59172,
			"type":"SCALAR"
		}
	],
	"bufferViews":[
		{
			"buffer":0,
			"byteLength":189864,
			"byteOffset":0,
			"target":34962
		},
		{
			"buffer":0,
			"byteLength":189864,
			"byteOffset":189864,
			"target":34962
		},
		{
			"buffer":0,
			"byteLength":126576,
			"byteOffset":379728,
			"target":34962
		},
		{
			"buffer":0,
			"byteLength":187140,
			"byteOffset":506304,
			"target":34963
		},
		{
			"buffer":0,
			"byteLength":288,
			"byteOffset":693444,
			"target":34962
		},
		{
			"buffer":0,
			"byteLength":288,
			"byteOffset":693732,
			"target":34962
		},
		{
			"buffer":0,
			"byteLength":192,
			"byteOffset":694020,
			"target":34962
		},
		{
			"buffer":0,
			"byteLength":72,
			"byteOffset":694212,
			"target":34963
		},
		{
			"buffer":0,
			"byteLength":184488,
			"byteOffset":694284,
			"target":34962
		},
		{
			"buffer":0,
			"byteLength":184488,
			"byteOffset":878772,
			"target":34962
		},
		{
			"buffer":0,
			"byteLength":122992,
			"byteOffset":1063260,
			"target":34962
		},
		{
			"buffer":0,
			"byteLength":118344,
			"byteOffset":1186252,
			"target":34963
		}
	],
	"samplers":[
		{
			"magFilter":9729,
			"minFilter":9987
		}
	],
	"buffers":[
		{
			"byteLength":1304596,
			"uri":"MapGround.bin"
		}
	]
}
