{
	"asset":{
		"generator":"Khronos glTF Blender I/O v4.1.63",
		"version":"2.0"
	},
	"scene":0,
	"scenes":[
		{
			"extras":{
				"other_props":{},
				"GodotPipelineProps":{
					"global_UI":1,
					"path_UI":0,
					"export_UI":1,
					"save_path":"//..\\..\\..\\OneDrive\\Documents\\godot\\spooky\\Map\\MapGround\\MapGround.gltf",
					"collision_UI":1,
					"col_types":0,
					"body_types":0
				}
			},
			"name":"Scene",
			"nodes":[
				0,
				1,
				2
			]
		}
	],
	"nodes":[
		{
			"extras":{
				"collision":"trimesh"
			},
			"mesh":0,
			"name":"land",
			"scale":[
				625,
				625,
				625
			]
		},
		{
			"extras":{
				"collision":"box",
				"size_x":"2.0304",
				"size_z":"2.0108",
				"size_y":"0.0634"
			},
			"mesh":1,
			"name":"water",
			"scale":[
				1000,
				1000,
				1000
			],
			"translation":[
				15.212833404541016,
				-4.507621765136719,
				-5.394577980041504
			]
		},
		{
			"name":"GPencil"
		}
	],
	"meshes":[
		{
			"name":"Plane",
			"primitives":[
				{
					"attributes":{
						"POSITION":0,
						"NORMAL":1
					},
					"indices":2
				}
			]
		},
		{
			"name":"Plane.001",
			"primitives":[
				{
					"attributes":{
						"POSITION":3,
						"NORMAL":4,
						"TEXCOORD_0":5
					},
					"indices":6
				}
			]
		}
	],
	"accessors":[
		{
			"bufferView":0,
			"componentType":5126,
			"count":134142,
			"max":[
				1.04097318649292,
				0.3128018379211426,
				1.000057339668274
			],
			"min":[
				-1.0193578004837036,
				-0.04163770750164986,
				-1.015731930732727
			],
			"type":"VEC3"
		},
		{
			"bufferView":1,
			"componentType":5126,
			"count":134142,
			"type":"VEC3"
		},
		{
			"bufferView":2,
			"componentType":5125,
			"count":136668,
			"type":"SCALAR"
		},
		{
			"bufferView":3,
			"componentType":5126,
			"count":24,
			"max":[
				1.0152127742767334,
				0.03168156370520592,
				1.0053945779800415
			],
			"min":[
				-1.0152127742767334,
				-0.03168156370520592,
				-1.0053945779800415
			],
			"type":"VEC3"
		},
		{
			"bufferView":4,
			"componentType":5126,
			"count":24,
			"type":"VEC3"
		},
		{
			"bufferView":5,
			"componentType":5126,
			"count":24,
			"type":"VEC2"
		},
		{
			"bufferView":6,
			"componentType":5123,
			"count":36,
			"type":"SCALAR"
		}
	],
	"bufferViews":[
		{
			"buffer":0,
			"byteLength":1609704,
			"byteOffset":0,
			"target":34962
		},
		{
			"buffer":0,
			"byteLength":1609704,
			"byteOffset":1609704,
			"target":34962
		},
		{
			"buffer":0,
			"byteLength":546672,
			"byteOffset":3219408,
			"target":34963
		},
		{
			"buffer":0,
			"byteLength":288,
			"byteOffset":3766080,
			"target":34962
		},
		{
			"buffer":0,
			"byteLength":288,
			"byteOffset":3766368,
			"target":34962
		},
		{
			"buffer":0,
			"byteLength":192,
			"byteOffset":3766656,
			"target":34962
		},
		{
			"buffer":0,
			"byteLength":72,
			"byteOffset":3766848,
			"target":34963
		}
	],
	"buffers":[
		{
			"byteLength":3766920,
			"uri":"MapGround.bin"
		}
	]
}
