{
	"asset":{
		"generator":"Khronos glTF Blender I/O v4.1.63",
		"version":"2.0"
	},
	"scene":0,
	"scenes":[
		{
			"extras":{
				"automirror":{
					"axis":1,
					"orientation":1
				},
				"other_props":{},
				"GodotPipelineProps":{
					"export_UI":1,
					"global_UI":1,
					"collision_UI":0,
					"path_UI":1,
					"set_path":"",
					"save_path":"//..\\..\\..\\OneDrive\\Documents\\godot\\spooky\\assets\\Gadgets\\turret"
				}
			},
			"name":"Scene",
			"nodes":[
				0,
				1,
				2,
				3,
				4,
				5,
				6,
				7,
				8,
				9,
				10
			]
		}
	],
	"nodes":[
		{
			"mesh":0,
			"name":"CenterAxis",
			"scale":[
				0.4000000059604645,
				0.4000000059604645,
				0.4000000059604645
			],
			"translation":[
				0,
				1.5,
				0
			]
		},
		{
			"name":"GPencil"
		},
		{
			"mesh":1,
			"name":"Cube",
			"translation":[
				0,
				4.333494186401367,
				0
			]
		},
		{
			"mesh":2,
			"name":"leg"
		},
		{
			"mesh":3,
			"name":"leg_shield",
			"rotation":[
				-0.022721966728568077,
				-0.026203809306025505,
				0.006946804467588663,
				0.9993742108345032
			]
		},
		{
			"mesh":2,
			"name":"leg.001",
			"rotation":[
				0,
				0.7071068286895752,
				0,
				0.7071068286895752
			]
		},
		{
			"mesh":3,
			"name":"leg_shield.001",
			"rotation":[
				-0.011154722422361374,
				0.6881354451179504,
				0.020978987216949463,
				0.7251931428909302
			]
		},
		{
			"mesh":2,
			"name":"leg.002",
			"rotation":[
				0,
				-1,
				0,
				1.6292068494294654e-07
			]
		},
		{
			"mesh":3,
			"name":"leg_shield.002",
			"rotation":[
				0.006946807727217674,
				0.9993742108345032,
				0.022721964865922928,
				0.026203718036413193
			]
		},
		{
			"mesh":2,
			"name":"leg.003",
			"rotation":[
				0,
				-0.7071068286895752,
				0,
				0.7071068286895752
			]
		},
		{
			"mesh":3,
			"name":"leg_shield.003",
			"rotation":[
				-0.02097899094223976,
				-0.7251930236816406,
				-0.0111547177657485,
				0.68813556432724
			]
		}
	],
	"materials":[
		{
			"doubleSided":true,
			"name":"Material",
			"pbrMetallicRoughness":{
				"baseColorFactor":[
					0.15837033092975616,
					0.08279342949390411,
					0.08002811670303345,
					1
				],
				"metallicFactor":0.2296072542667389,
				"roughnessFactor":0.8685801029205322
			}
		}
	],
	"meshes":[
		{
			"name":"Cylinder.001",
			"primitives":[
				{
					"attributes":{
						"POSITION":0,
						"NORMAL":1,
						"TEXCOORD_0":2
					},
					"indices":3,
					"material":0
				}
			]
		},
		{
			"name":"Cube.004",
			"primitives":[
				{
					"attributes":{
						"POSITION":4,
						"NORMAL":5,
						"TEXCOORD_0":6
					},
					"indices":7
				}
			]
		},
		{
			"name":"Cube.001",
			"primitives":[
				{
					"attributes":{
						"POSITION":8,
						"NORMAL":9,
						"TEXCOORD_0":10
					},
					"indices":11,
					"material":0
				}
			]
		},
		{
			"name":"Cube.002",
			"primitives":[
				{
					"attributes":{
						"POSITION":12,
						"NORMAL":13,
						"TEXCOORD_0":14
					},
					"indices":15,
					"material":0
				}
			]
		}
	],
	"accessors":[
		{
			"bufferView":0,
			"componentType":5126,
			"count":618,
			"max":[
				1.3508679866790771,
				1.7033493518829346,
				1.3209114074707031
			],
			"min":[
				-1.3508679866790771,
				-0.8953865766525269,
				-1.3209114074707031
			],
			"type":"VEC3"
		},
		{
			"bufferView":1,
			"componentType":5126,
			"count":618,
			"type":"VEC3"
		},
		{
			"bufferView":2,
			"componentType":5126,
			"count":618,
			"type":"VEC2"
		},
		{
			"bufferView":3,
			"componentType":5123,
			"count":1344,
			"type":"SCALAR"
		},
		{
			"bufferView":4,
			"componentType":5126,
			"count":24,
			"max":[
				1,
				1,
				1
			],
			"min":[
				-1,
				-1,
				-1
			],
			"type":"VEC3"
		},
		{
			"bufferView":5,
			"componentType":5126,
			"count":24,
			"type":"VEC3"
		},
		{
			"bufferView":6,
			"componentType":5126,
			"count":24,
			"type":"VEC2"
		},
		{
			"bufferView":7,
			"componentType":5123,
			"count":36,
			"type":"SCALAR"
		},
		{
			"bufferView":8,
			"componentType":5126,
			"count":351,
			"max":[
				1.268551230430603,
				1.7406541109085083,
				0.1634150594472885
			],
			"min":[
				0.47651129961013794,
				0.6958168745040894,
				-0.1456688493490219
			],
			"type":"VEC3"
		},
		{
			"bufferView":9,
			"componentType":5126,
			"count":351,
			"type":"VEC3"
		},
		{
			"bufferView":10,
			"componentType":5126,
			"count":351,
			"type":"VEC2"
		},
		{
			"bufferView":11,
			"componentType":5123,
			"count":1110,
			"type":"SCALAR"
		},
		{
			"bufferView":12,
			"componentType":5126,
			"count":304,
			"max":[
				2.143264055252075,
				1.6625969409942627,
				0.8160859942436218
			],
			"min":[
				1.0574003458023071,
				-0.6890766620635986,
				-0.7825644612312317
			],
			"type":"VEC3"
		},
		{
			"bufferView":13,
			"componentType":5126,
			"count":304,
			"type":"VEC3"
		},
		{
			"bufferView":14,
			"componentType":5126,
			"count":304,
			"type":"VEC2"
		},
		{
			"bufferView":15,
			"componentType":5123,
			"count":534,
			"type":"SCALAR"
		}
	],
	"bufferViews":[
		{
			"buffer":0,
			"byteLength":7416,
			"byteOffset":0,
			"target":34962
		},
		{
			"buffer":0,
			"byteLength":7416,
			"byteOffset":7416,
			"target":34962
		},
		{
			"buffer":0,
			"byteLength":4944,
			"byteOffset":14832,
			"target":34962
		},
		{
			"buffer":0,
			"byteLength":2688,
			"byteOffset":19776,
			"target":34963
		},
		{
			"buffer":0,
			"byteLength":288,
			"byteOffset":22464,
			"target":34962
		},
		{
			"buffer":0,
			"byteLength":288,
			"byteOffset":22752,
			"target":34962
		},
		{
			"buffer":0,
			"byteLength":192,
			"byteOffset":23040,
			"target":34962
		},
		{
			"buffer":0,
			"byteLength":72,
			"byteOffset":23232,
			"target":34963
		},
		{
			"buffer":0,
			"byteLength":4212,
			"byteOffset":23304,
			"target":34962
		},
		{
			"buffer":0,
			"byteLength":4212,
			"byteOffset":27516,
			"target":34962
		},
		{
			"buffer":0,
			"byteLength":2808,
			"byteOffset":31728,
			"target":34962
		},
		{
			"buffer":0,
			"byteLength":2220,
			"byteOffset":34536,
			"target":34963
		},
		{
			"buffer":0,
			"byteLength":3648,
			"byteOffset":36756,
			"target":34962
		},
		{
			"buffer":0,
			"byteLength":3648,
			"byteOffset":40404,
			"target":34962
		},
		{
			"buffer":0,
			"byteLength":2432,
			"byteOffset":44052,
			"target":34962
		},
		{
			"buffer":0,
			"byteLength":1068,
			"byteOffset":46484,
			"target":34963
		}
	],
	"buffers":[
		{
			"byteLength":47552,
			"uri":"turret.bin"
		}
	]
}
